<?xml version="1.0" encoding="UTF-8" standalone="no"?>
<!DOCTYPE svg PUBLIC "-//W3C//DTD SVG 1.1//EN" "http://www.w3.org/Graphics/SVG/1.1/DTD/svg11.dtd">
<svg width="100%" height="100%" viewBox="0 0 381 251" version="1.1" xmlns="http://www.w3.org/2000/svg" xmlns:xlink="http://www.w3.org/1999/xlink" xml:space="preserve" xmlns:serif="http://www.serif.com/" style="fill-rule:evenodd;clip-rule:evenodd;stroke-linejoin:round;stroke-miterlimit:2;">
    <g transform="matrix(1,0,0,1,-409.703327,-476.371032)">
        <g>
            <g transform="matrix(0.413314,0,0,0.413314,600,561.617053)">
                <g transform="matrix(1,0,0,1,-460.416667,-206.25)">
                    <g transform="matrix(4.166667,0,0,4.166667,0,0)">
                        <path d="M110.007,0C170.761,0 220.013,21.659 220.014,48.376C220.014,62.624 208.344,72.313 191.893,79.07L201.636,96.69C202.109,97.546 201.199,98.502 200.32,98.072L173.676,85.019C153.293,90.351 130.08,92.923 112.657,94.765C31.146,103.38 0,75.094 0,48.376C0,21.659 25.846,0 110.007,0Z" style="fill:rgb(231,201,243);fill-rule:nonzero;"/>
                    </g>
                    <g transform="matrix(4.166667,0,0,4.166667,0,0)">
                        <path d="M60.192,50.674C60.456,50.773 60.761,50.927 61.104,51.135C61.448,51.342 61.83,51.585 62.251,51.864C63.059,52.496 63.896,53.759 64.76,55.652C65.554,57.623 65.603,59.98 64.908,62.722C64.066,65.509 62.159,67.321 59.188,68.159C56.179,68.999 53.578,69.394 51.384,69.343C49.077,69.26 47.538,68.901 46.767,68.267C46.47,66.608 46.171,62.405 45.871,55.658C45.682,52.249 45.501,48.598 45.327,44.705C45.152,40.775 44.966,36.586 44.768,32.137C45.136,31.229 46.005,30.726 47.375,30.628C48.041,30.561 48.837,30.507 49.764,30.466C50.689,30.387 51.746,30.34 52.934,30.325C55.308,30.256 57.791,30.535 60.382,31.163C62.938,31.829 64.903,33.005 66.278,34.689C67.731,36.445 68.524,38.416 68.659,40.601C68.834,42.859 68.452,44.715 67.514,46.169C66.579,47.696 65.474,48.748 64.2,49.325C63.544,49.614 62.887,49.885 62.23,50.137C61.571,50.352 60.892,50.531 60.192,50.674ZM48.023,48.931C49.213,48.952 50.438,48.954 51.701,48.934C52.961,48.878 54.276,48.801 55.647,48.703C57.052,48.566 58.289,48.4 59.358,48.203C60.425,47.97 61.358,47.669 62.159,47.299C63.761,46.559 64.832,45.601 65.374,44.425C65.646,43.856 65.824,43.254 65.907,42.618C66.027,41.981 66.054,41.33 65.987,40.664C65.919,39.962 65.739,39.264 65.448,38.571C65.157,37.878 64.755,37.19 64.242,36.507C63.257,35.251 61.673,34.3 59.49,33.654C58.435,33.33 57.349,33.118 56.23,33.019C55.109,32.884 53.992,32.822 52.878,32.834C50.654,32.933 48.791,33.221 47.289,33.696L48.023,48.931ZM48.96,66.219C52.064,66.675 54.919,66.566 57.527,65.893C60.099,65.258 61.751,63.996 62.484,62.106C63.184,60.292 63.218,58.563 62.588,56.919C61.957,55.276 61.067,54.052 59.917,53.249C58.657,52.488 57.023,52.078 55.014,52.019C53.973,51.991 52.877,51.984 51.726,51.998C50.575,52.012 49.405,52.027 48.217,52.043L48.96,66.219Z" style="fill:rgb(149,24,207);fill-rule:nonzero;"/>
                    </g>
                    <g transform="matrix(4.166667,0,0,4.166667,0,0)">
                        <path d="M72.829,44.149C73.797,42.545 75.195,41.387 77.02,40.675C78.778,40.113 80.63,39.975 82.574,40.26C84.407,40.55 86.003,41.352 87.362,42.666C88.023,43.342 88.576,44.079 89.02,44.877C89.5,45.635 89.834,46.475 90.024,47.395C90.251,48.313 90.372,49.367 90.388,50.555C90.402,51.706 90.33,53.009 90.172,54.465C89.977,55.922 89.774,57.213 89.564,58.337C89.391,59.459 89.229,60.413 89.079,61.2C89.74,62.694 90.602,63.714 91.667,64.261C92.694,64.81 93.782,65.04 94.929,64.951C96.003,64.867 96.54,65.251 96.541,66.106C96.545,67.034 95.824,67.531 94.378,67.595C93.007,67.656 91.727,67.286 90.54,66.484C89.277,65.649 88.445,64.906 88.044,64.255C87.268,65.999 86.133,67.201 84.639,67.862C83.036,68.564 81.283,68.828 79.381,68.653C78.447,68.546 77.583,68.324 76.788,67.988C76.03,67.651 75.376,67.141 74.825,66.46C73.692,65.21 73.072,63.362 72.963,60.915C72.82,58.544 73.468,56.416 74.907,54.532C76.311,52.686 78.129,51.807 80.362,51.893C82.517,51.908 84.136,52.394 85.219,53.348C86.261,54.23 86.987,55.517 87.396,57.207C87.861,52.618 87.913,49.625 87.554,48.229C87.159,46.873 86.475,45.696 85.502,44.699C84.564,43.663 83.402,43.009 82.016,42.737C80.594,42.503 79.224,42.62 77.908,43.087C76.554,43.556 75.479,44.439 74.683,45.738C73.818,46.334 73.192,46.454 72.804,46.1C72.378,45.711 72.386,45.06 72.829,44.149ZM85.606,58.29C84.837,56.876 84.143,55.885 83.523,55.318C82.979,54.785 81.962,54.459 80.471,54.34C78.983,54.295 77.884,54.641 77.174,55.378C76.782,55.767 76.466,56.171 76.225,56.591C76.019,56.971 75.851,57.369 75.721,57.783C75.592,58.235 75.503,58.74 75.454,59.3C75.44,59.82 75.429,60.415 75.422,61.084C75.441,62.346 75.863,63.479 76.688,64.482C77.438,65.489 78.485,66.055 79.828,66.181C81.134,66.309 82.296,66.127 83.314,65.636C84.329,65.071 85.089,64.201 85.594,63.027C86.023,61.819 86.027,60.24 85.606,58.29Z" style="fill:rgb(149,24,207);fill-rule:nonzero;"/>
                    </g>
                    <g transform="matrix(4.166667,0,0,4.166667,0,0)">
                        <path d="M103.136,30.262C103.495,40.833 103.709,46.897 103.779,48.454C104.612,47.154 106.238,46.116 108.655,45.339C111.038,44.639 113.525,44.584 116.114,45.174C118.629,45.768 120.544,47.057 121.858,49.042C122.459,50.018 122.93,51 123.271,51.988C123.611,52.939 123.803,53.914 123.847,54.916C123.938,56.955 123.634,58.881 122.935,60.695C122.164,62.587 121.171,64.043 119.953,65.063C118.7,66.122 116.616,66.865 113.7,67.292C110.746,67.683 108.351,67.288 106.515,66.107C105.56,65.518 104.77,64.885 104.146,64.207C103.52,63.492 103.022,62.752 102.654,61.989C102.321,61.186 102.042,60.344 101.817,59.463C101.628,58.542 101.51,57.563 101.463,56.525C101.38,55.489 101.26,52.782 101.102,48.406C100.98,43.991 100.782,37.889 100.509,30.1C100.682,28.978 101.159,28.418 101.939,28.421C102.682,28.425 103.081,29.038 103.136,30.262ZM109.681,64.629C111.674,65.172 113.385,65.225 114.815,64.79C115.548,64.572 116.242,64.318 116.898,64.029C117.554,63.74 118.169,63.378 118.744,62.944C119.896,62.112 120.71,60.367 121.186,57.709C121.663,55.087 121.266,52.839 119.994,50.964C118.649,49.129 117,47.958 115.045,47.451C113.091,46.943 110.947,47.188 108.614,48.183C107.483,48.642 106.561,49.203 105.847,49.866C105.171,50.528 104.702,51.255 104.44,52.046C104.217,52.874 104.052,53.754 103.945,54.687C103.873,55.582 103.896,56.51 104.013,57.47C104.213,59.467 104.747,61.022 105.614,62.135C106.048,62.71 106.59,63.206 107.24,63.623C107.927,64.038 108.741,64.374 109.681,64.629Z" style="fill:rgb(149,24,207);fill-rule:nonzero;"/>
                    </g>
                    <g transform="matrix(4.166667,0,0,4.166667,0,0)">
                        <path d="M130.941,29.023C131.3,39.594 131.515,45.659 131.584,47.216C132.418,45.916 134.043,44.877 136.46,44.101C138.844,43.401 141.33,43.346 143.92,43.936C146.435,44.53 148.35,45.819 149.664,47.803C150.265,48.78 150.735,49.762 151.077,50.75C151.416,51.7 151.608,52.676 151.653,53.677C151.744,55.716 151.439,57.643 150.74,59.457C149.97,61.349 148.976,62.805 147.758,63.825C146.505,64.883 144.421,65.626 141.506,66.053C138.551,66.445 136.156,66.05 134.32,64.869C133.366,64.28 132.576,63.646 131.951,62.968C131.325,62.253 130.828,61.514 130.459,60.75C130.127,59.948 129.848,59.106 129.623,58.224C129.433,57.304 129.315,56.325 129.269,55.287C129.186,54.251 129.065,51.544 128.907,47.168C128.785,42.753 128.587,36.651 128.315,28.862C128.488,27.74 128.964,27.18 129.745,27.182C130.488,27.186 130.886,27.8 130.941,29.023ZM137.486,63.391C139.479,63.933 141.191,63.987 142.62,63.552C143.353,63.334 144.048,63.08 144.703,62.791C145.359,62.501 145.975,62.14 146.55,61.705C147.701,60.874 148.515,59.129 148.991,56.47C149.469,53.849 149.071,51.6 147.799,49.725C146.454,47.891 144.805,46.72 142.851,46.212C140.896,45.705 138.753,45.949 136.42,46.945C135.289,47.404 134.366,47.965 133.653,48.628C132.977,49.29 132.507,50.016 132.245,50.808C132.022,51.635 131.857,52.516 131.75,53.449C131.679,54.344 131.701,55.272 131.818,56.232C132.019,58.229 132.552,59.784 133.419,60.897C133.853,61.472 134.396,61.968 135.046,62.385C135.733,62.8 136.546,63.135 137.486,63.391Z" style="fill:rgb(149,24,207);fill-rule:nonzero;"/>
                    </g>
                    <g transform="matrix(4.166667,0,0,4.166667,0,0)">
                        <path d="M160.869,63.709C160.697,64.868 160.26,65.464 159.555,65.495C158.777,65.53 158.269,64.977 158.033,63.836L156.352,27.357C156.362,25.908 156.777,25.221 157.598,25.296C158.455,25.369 158.986,26.014 159.188,27.231L160.869,63.709Z" style="fill:rgb(149,24,207);fill-rule:nonzero;"/>
                    </g>
                </g>
            </g>
            <g transform="matrix(3.847728,0.116472,-0.116472,3.847728,321.41193,715.332089)">
                <path d="M51.88,-1.245C52.181,-1.221 52.47,-1.202 52.747,-1.19C53.023,-1.178 53.292,-1.172 53.552,-1.172C55.261,-1.172 56.504,-1.455 57.281,-2.02C58.059,-2.586 58.447,-3.487 58.447,-4.724C58.447,-5.855 58.108,-6.698 57.428,-7.251C56.748,-7.804 55.713,-8.081 54.321,-8.081C53.996,-8.081 53.628,-8.067 53.217,-8.038C52.806,-8.01 52.356,-7.971 51.868,-7.922L51.88,-1.245ZM51.88,-9.18C51.986,-9.172 52.106,-9.165 52.24,-9.161C52.374,-9.157 52.568,-9.155 52.82,-9.155C54.399,-9.155 55.556,-9.434 56.293,-9.991C57.029,-10.549 57.397,-11.426 57.397,-12.622C57.397,-13.639 57.056,-14.402 56.372,-14.911C55.688,-15.42 54.663,-15.674 53.296,-15.674C53.174,-15.674 52.956,-15.664 52.643,-15.643C52.33,-15.623 52.071,-15.609 51.868,-15.601L51.88,-9.18ZM47.778,-16.772L54.15,-16.772C56.079,-16.772 57.515,-16.439 58.459,-15.771C59.403,-15.104 59.875,-14.087 59.875,-12.72C59.875,-11.776 59.572,-10.984 58.966,-10.345C58.36,-9.707 57.454,-9.224 56.25,-8.899C57.715,-8.883 58.856,-8.523 59.674,-7.819C60.492,-7.115 60.901,-6.14 60.901,-4.895C60.901,-3.308 60.341,-2.096 59.222,-1.257C58.103,-0.419 56.486,0 54.37,0L47.778,0L47.778,-1.025L49.194,-1.147L49.622,-1.501L49.622,-15.271L49.194,-15.625L47.778,-15.771L47.778,-16.772Z" style="fill:rgb(231,201,243);fill-rule:nonzero;"/>
                <path d="M68.774,-11.206C67.733,-11.206 66.897,-10.736 66.266,-9.796C65.635,-8.856 65.32,-7.601 65.32,-6.03C65.32,-4.46 65.637,-3.204 66.272,-2.264C66.907,-1.324 67.741,-0.854 68.774,-0.854C69.824,-0.854 70.667,-1.322 71.301,-2.258C71.936,-3.194 72.253,-4.451 72.253,-6.03C72.253,-7.593 71.934,-8.846 71.295,-9.79C70.656,-10.734 69.816,-11.206 68.774,-11.206ZM68.774,-12.28C70.475,-12.28 71.871,-11.696 72.961,-10.529C74.052,-9.361 74.597,-7.861 74.597,-6.03C74.597,-4.199 74.05,-2.7 72.955,-1.532C71.861,-0.364 70.467,0.22 68.774,0.22C67.082,0.22 65.692,-0.362 64.606,-1.526C63.519,-2.69 62.976,-4.191 62.976,-6.03C62.976,-7.869 63.515,-9.371 64.594,-10.535C65.672,-11.698 67.065,-12.28 68.774,-12.28Z" style="fill:rgb(231,201,243);fill-rule:nonzero;"/>
                <path d="M82.251,-11.206C81.209,-11.206 80.373,-10.736 79.742,-9.796C79.112,-8.856 78.796,-7.601 78.796,-6.03C78.796,-4.46 79.114,-3.204 79.749,-2.264C80.383,-1.324 81.217,-0.854 82.251,-0.854C83.301,-0.854 84.143,-1.322 84.778,-2.258C85.413,-3.194 85.73,-4.451 85.73,-6.03C85.73,-7.593 85.411,-8.846 84.772,-9.79C84.133,-10.734 83.293,-11.206 82.251,-11.206ZM82.251,-12.28C83.952,-12.28 85.347,-11.696 86.438,-10.529C87.528,-9.361 88.074,-7.861 88.074,-6.03C88.074,-4.199 87.526,-2.7 86.432,-1.532C85.337,-0.364 83.944,0.22 82.251,0.22C80.558,0.22 79.169,-0.362 78.082,-1.526C76.996,-2.69 76.453,-4.191 76.453,-6.03C76.453,-7.869 76.992,-9.371 78.07,-10.535C79.148,-11.698 80.542,-12.28 82.251,-12.28Z" style="fill:rgb(231,201,243);fill-rule:nonzero;"/>
                <path d="M89.624,0L89.624,-0.903L90.979,-1.025L91.406,-1.428L91.406,-16.724L89.478,-16.724L89.478,-17.505L92.529,-18.396L93.481,-18.396L93.481,-6.372L93.958,-6.372L97.778,-10.645L97.607,-10.999L96.472,-11.096L96.472,-12.024L101.221,-12.024L101.221,-11.096L99.622,-10.901L96.204,-7.275L100.598,-1.074L102.197,-0.952L102.197,0L98.303,0L98.303,-0.83L94.922,-5.676L93.481,-5.676L93.481,-1.428L93.921,-1.025L95.105,-0.903L95.105,0L89.624,0Z" style="fill:rgb(231,201,243);fill-rule:nonzero;"/>
            </g>
        </g>
    </g>
</svg>
