<svg width="221" height="99" viewBox="0 0 221 99" fill="none" xmlns="http://www.w3.org/2000/svg">
<path d="M110.007 0C170.761 3.69166e-05 220.013 21.6587 220.014 48.376C220.014 62.6238 208.344 72.3132 191.893 79.0703L201.636 96.6904C202.109 97.5463 201.199 98.5025 200.32 98.0723L173.676 85.0195C153.293 90.3512 130.08 92.9232 112.657 94.7646C31.1465 103.38 0 75.0935 0 48.376C0.000280526 21.6586 25.8456 0 110.007 0Z" fill="#E7C9F3"/>
<path d="M60.1921 50.6738C60.4565 50.7734 60.7605 50.927 61.1041 51.1346C61.4477 51.3422 61.83 51.5852 62.251 51.8636C63.0593 52.4963 63.8956 53.7592 64.76 55.6524C65.5536 57.623 65.6028 59.9797 64.9077 62.7224C64.066 65.5088 62.1593 67.3211 59.1877 68.1592C56.179 68.999 53.5777 69.3935 51.3837 69.3426C49.0769 69.2596 47.5379 68.9009 46.7667 68.2666C46.4699 66.6082 46.1713 62.4053 45.8708 55.6578C45.6818 52.2487 45.5007 48.5977 45.3273 44.7049C45.1523 40.7751 44.9657 36.5858 44.7676 32.1369C45.1358 31.2289 46.0049 30.7259 47.375 30.6277C48.0407 30.5609 48.8369 30.5069 49.7638 30.4656C50.689 30.3873 51.7456 30.3402 52.9336 30.3245C55.308 30.2559 57.7907 30.5353 60.3818 31.1629C62.9375 31.8292 64.903 33.0047 66.2782 34.6893C67.7308 36.4449 68.5244 38.4155 68.6589 40.6012C68.8337 42.8594 68.452 44.7152 67.5138 46.1686C66.5788 47.6961 65.4741 48.7483 64.1996 49.3251C63.5439 49.6144 62.8873 49.8851 62.2298 50.1372C61.5708 50.3523 60.8915 50.5312 60.1921 50.6738ZM48.023 48.9311C49.2126 48.9524 50.4385 48.9536 51.7007 48.9345C52.9612 48.8784 54.2765 48.8012 55.6466 48.7031C57.0521 48.5662 58.2891 48.3996 59.3577 48.2035C60.4246 47.9702 61.3584 47.6686 62.1591 47.2986C63.7607 46.5586 64.8324 45.6008 65.3744 44.4251C65.6463 43.8558 65.8238 43.2535 65.9069 42.6183C66.0271 41.9814 66.0539 41.3301 65.9871 40.6645C65.9186 39.9617 65.7389 39.2639 65.4481 38.5711C65.1572 37.8782 64.7551 37.1903 64.2417 36.5074C63.2571 35.2511 61.6731 34.3001 59.4898 33.6543C58.4352 33.3298 57.3485 33.1182 56.2297 33.0194C55.1092 32.8836 53.9921 32.8219 52.8782 32.8344C50.6538 32.9334 48.7906 33.2207 47.2887 33.6962L48.023 48.9311ZM48.96 66.2187C52.0636 66.6748 54.9191 66.5662 57.5266 65.8929C60.0986 65.2583 61.7512 63.996 62.4843 62.1059C63.1836 60.2917 63.218 58.5628 62.5876 56.9193C61.9572 55.2757 61.0669 54.0524 59.9167 53.2492C58.6569 52.488 57.0228 52.0779 55.0142 52.0188C53.9728 51.9909 52.8766 51.984 51.7257 51.9981C50.5748 52.0122 49.4053 52.0271 48.2173 52.0429L48.96 66.2187Z" fill="#9518CF"/>
<path d="M72.8288 44.1488C73.7975 42.5455 75.1947 41.3874 77.0203 40.6746C78.7784 40.1134 80.6296 39.9752 82.574 40.2601C84.4071 40.5499 86.003 41.3518 87.3617 42.6658C88.0233 43.3421 88.5762 44.079 89.0203 44.8765C89.4999 45.6352 89.8344 46.4747 90.024 47.3949C90.2507 48.3135 90.3719 49.3668 90.3876 50.5549C90.4017 51.7058 90.3298 53.0092 90.1717 54.465C89.9766 55.9224 89.774 57.213 89.5641 58.3368C89.3911 59.4589 89.2293 60.4134 89.0786 61.2002C89.7395 62.6938 90.6022 63.7141 91.6667 64.261C92.6941 64.8096 93.7816 65.0398 94.9293 64.9515C96.0028 64.8666 96.54 65.2513 96.5409 66.1056C96.5451 67.0341 95.8242 67.5306 94.3783 67.595C93.0066 67.6561 91.7271 67.2859 90.5398 66.4843C89.2768 65.649 88.445 64.906 88.0445 64.2552C87.2678 65.9985 86.1326 67.2007 84.639 67.8615C83.0358 68.5644 81.2831 68.8282 79.3807 68.6529C78.4473 68.5459 77.583 68.3244 76.788 67.9883C76.03 67.6506 75.3758 67.1411 74.8254 66.4598C73.6924 65.2101 73.0715 63.3618 72.9625 60.9149C72.8198 58.5438 73.468 56.4161 74.9071 54.5318C76.3108 52.6862 78.129 51.8066 80.3617 51.8929C82.5169 51.9084 84.1359 52.3935 85.2185 53.3482C86.2608 54.2305 86.9867 55.5169 87.3964 57.2074C87.8606 52.6176 87.9131 49.6249 87.5537 48.2293C87.159 46.8725 86.4751 45.6956 85.502 44.6988C84.5643 43.6633 83.4022 43.0093 82.0156 42.7367C80.5936 42.5028 79.2243 42.6195 77.9078 43.0868C76.5543 43.5557 75.4792 44.4394 74.6826 45.7379C73.8176 46.3336 73.1915 46.4544 72.8042 46.1001C72.3783 45.7105 72.3864 45.06 72.8288 44.1488ZM85.6058 58.2902C84.837 56.8757 84.1428 55.885 83.5232 55.3183C82.9794 54.7853 81.9619 54.4591 80.4707 54.3398C78.9827 54.2946 77.8837 54.6407 77.1736 55.3781C76.7823 55.7671 76.466 56.1712 76.2246 56.5906C76.0187 56.9712 75.8507 57.3687 75.7205 57.7832C75.5921 58.2346 75.5031 58.7401 75.4538 59.2995C75.4398 59.8202 75.4291 60.415 75.4218 61.084C75.4408 62.3462 75.8628 63.479 76.6875 64.4823C77.4382 65.489 78.485 66.0554 79.8279 66.1813C81.1337 66.3089 82.2958 66.1271 83.314 65.636C84.329 65.0707 85.0889 64.2011 85.5938 63.027C86.023 61.8192 86.0269 60.2402 85.6058 58.2902Z" fill="#9518CF"/>
<path d="M103.136 30.2618C103.495 40.8329 103.709 46.8969 103.779 48.454C104.612 47.1539 106.238 46.1157 108.655 45.3394C111.038 44.6389 113.525 44.5838 116.114 45.1743C118.629 45.7681 120.544 47.0573 121.858 49.0419C122.459 50.0181 122.93 51.0001 123.271 51.9879C123.611 52.9386 123.803 53.9145 123.847 54.9155C123.938 56.9545 123.634 58.8812 122.935 60.6954C122.164 62.587 121.171 64.0429 119.953 65.063C118.7 66.1218 116.616 66.8647 113.7 67.2917C110.746 67.6833 108.351 67.2885 106.515 66.1072C105.56 65.5182 104.77 64.8847 104.146 64.2068C103.52 63.4917 103.022 62.7523 102.654 61.9886C102.321 61.1862 102.042 60.3442 101.817 59.4627C101.628 58.5425 101.51 57.5633 101.463 56.5253C101.38 55.4888 101.26 52.7824 101.102 48.4061C100.98 43.991 100.782 37.889 100.509 30.1002C100.682 28.9781 101.159 28.4182 101.939 28.4206C102.682 28.4247 103.081 29.0384 103.136 30.2618ZM109.681 64.6289C111.674 65.1716 113.385 65.2255 114.815 64.7903C115.548 64.5719 116.242 64.3181 116.898 64.0289C117.554 63.7396 118.169 63.3779 118.744 62.9437C119.896 62.1123 120.71 60.3673 121.186 57.7086C121.663 55.087 121.266 52.8387 119.994 50.9637C118.649 49.1291 117 47.9581 115.045 47.4508C113.091 46.9434 110.947 47.1875 108.614 48.1829C107.483 48.6419 106.561 49.2031 105.847 49.8664C105.171 50.528 104.702 51.2547 104.44 52.0464C104.217 52.8736 104.052 53.7539 103.945 54.6874C103.873 55.5821 103.896 56.5098 104.013 57.4704C104.213 59.4674 104.747 61.0224 105.614 62.1354C106.048 62.7104 106.59 63.2064 107.24 63.6232C107.927 64.0383 108.741 64.3736 109.681 64.6289Z" fill="#9518CF"/>
<path d="M130.941 29.0235C131.3 39.5945 131.515 45.6586 131.584 47.2157C132.418 45.9156 134.043 44.8773 136.46 44.101C138.844 43.4005 141.33 43.3455 143.92 43.936C146.435 44.5298 148.35 45.819 149.664 47.8035C150.265 48.7798 150.735 49.7618 151.077 50.7496C151.416 51.7003 151.608 52.6761 151.653 53.6771C151.744 55.7162 151.439 57.6428 150.74 59.4571C149.97 61.3487 148.976 62.8046 147.758 63.8247C146.505 64.8834 144.421 65.6263 141.506 66.0534C138.551 66.445 136.156 66.0501 134.32 64.8689C133.366 64.2799 132.576 63.6464 131.951 62.9684C131.325 62.2534 130.828 61.514 130.459 60.7503C130.127 59.9479 129.848 59.1059 129.623 58.2244C129.433 57.3042 129.315 56.325 129.269 55.2869C129.186 54.2505 129.065 51.5441 128.907 47.1677C128.785 42.7527 128.587 36.6507 128.315 28.8619C128.488 27.7397 128.964 27.1799 129.745 27.1823C130.488 27.1863 130.886 27.8001 130.941 29.0235ZM137.486 63.3906C139.479 63.9333 141.191 63.9871 142.62 63.552C143.353 63.3336 144.048 63.0798 144.703 62.7906C145.359 62.5013 145.975 62.1396 146.55 61.7054C147.701 60.874 148.515 59.129 148.991 56.4703C149.469 53.8487 149.071 51.6004 147.799 49.7254C146.454 47.8908 144.805 46.7198 142.851 46.2125C140.896 45.7051 138.753 45.9492 136.42 46.9446C135.289 47.4036 134.366 47.9648 133.653 48.628C132.977 49.2897 132.507 50.0164 132.245 50.8081C132.022 51.6353 131.857 52.5156 131.75 53.4491C131.679 54.3438 131.701 55.2715 131.818 56.2321C132.019 58.2291 132.552 59.7841 133.419 60.8971C133.853 61.4721 134.396 61.968 135.046 62.3849C135.733 62.8 136.546 63.1353 137.486 63.3906Z" fill="#9518CF"/>
<path d="M160.869 63.7091C160.697 64.8683 160.26 65.4636 159.555 65.495C158.777 65.5297 158.269 64.9765 158.033 63.8355L156.352 27.3572C156.362 25.908 156.777 25.2209 157.598 25.2958C158.455 25.369 158.986 26.0141 159.188 27.2309L160.869 63.7091Z" fill="#9518CF"/>
</svg>
