<?xml version="1.0" encoding="UTF-8" standalone="no"?>
<!DOCTYPE svg PUBLIC "-//W3C//DTD SVG 1.1//EN" "http://www.w3.org/Graphics/SVG/1.1/DTD/svg11.dtd">
<svg width="39" height="36" viewBox="0 0 39 36" version="1.1" xmlns="http://www.w3.org/2000/svg" xmlns:xlink="http://www.w3.org/1999/xlink" xml:space="preserve" xmlns:serif="http://www.serif.com/" style="fill-rule:evenodd;clip-rule:evenodd;stroke-linejoin:round;stroke-miterlimit:2;">
    <g transform="matrix(1,0,0,1,-173,-317)">
        <g transform="matrix(0.05539,0,0,0.060289,152.953204,306.344459)">
            <path d="M699.408,561.237L652.864,584.961C644.012,589.472 633.223,589.345 624.499,584.626C615.776,579.907 610.421,571.301 610.421,562L610.421,314C610.421,314 610.812,296.357 629.271,289.311C640.383,285.07 653.252,288.698 660.955,297.191L850.963,506.679C858.062,514.506 859.592,525.399 854.888,534.626C850.185,543.852 840.097,549.745 829.007,549.745L781.735,549.745L810.912,620.129C813.674,626.792 813.368,634.201 810.064,640.653C806.759,647.104 800.742,652.044 793.393,654.337L769.862,661.678C755.237,666.24 739.312,659.302 733.903,646.01L699.408,561.237Z"/>
        </g>
        <g transform="matrix(1,0,0,1,0,-3)">
            <path d="M176,321.5L176,354.5C176,355.328 175.328,356 174.5,356C173.672,356 173,355.328 173,354.5L173,321.5C173,320.672 173.672,320 174.5,320C175.328,320 176,320.672 176,321.5Z"/>
        </g>
        <g transform="matrix(1,0,0,1,36,-3)">
            <path d="M176,321.5L176,354.5C176,355.328 175.328,356 174.5,356C173.672,356 173,355.328 173,354.5L173,321.5C173,320.672 173.672,320 174.5,320C175.328,320 176,320.672 176,321.5Z"/>
        </g>
    </g>
</svg>
