<?xml version="1.0" encoding="UTF-8" standalone="no"?>
<!DOCTYPE svg PUBLIC "-//W3C//DTD SVG 1.1//EN" "http://www.w3.org/Graphics/SVG/1.1/DTD/svg11.dtd">
<svg width="100%" height="100%" viewBox="0 0 1080 1080" version="1.1" xmlns="http://www.w3.org/2000/svg" xmlns:xlink="http://www.w3.org/1999/xlink" xml:space="preserve" xmlns:serif="http://www.serif.com/" style="fill-rule:evenodd;clip-rule:evenodd;stroke-linejoin:round;stroke-miterlimit:2;">
    <g transform="matrix(1,0,0,1,-40.5,124)">
        <path d="M682,232.5L682,391.5C682,440.344 642.344,480 593.5,480L180.5,480C131.656,480 92,440.344 92,391.5L92,232.5C92,183.656 131.656,144 180.5,144L593.5,144C642.344,144 682,183.656 682,232.5ZM111.602,217.5C110.553,222.334 110,227.353 110,232.5L110,391.5C110,430.41 141.59,462 180.5,462L593.5,462C632.41,462 664,430.41 664,391.5L664,232.5C664,227.353 663.447,222.334 662.398,217.5L111.602,217.5Z" style="fill:white;"/>
    </g>
    <g transform="matrix(0.527877,0,0,0.728814,649.21163,98.491525)">
        <path d="M690.049,232.5L690.049,241.5C690.049,248.32 682.416,253.849 673,253.849L101,253.849C91.584,253.849 83.951,248.32 83.951,241.5L83.951,232.5C83.951,206.993 104.062,183.616 131.255,166.885C158.039,150.405 191.369,140.651 216.493,140.651L555.612,140.651C580.66,140.651 614.425,150.376 641.669,166.806C669.434,183.55 690.049,206.974 690.049,232.5ZM118.223,229.151L655.772,229.151C653.96,212.163 638.591,197.087 619.851,185.786C599.369,173.434 574.443,165.349 555.612,165.349L216.493,165.349C197.739,165.349 173.325,173.406 153.331,185.708C134.943,197.021 119.984,212.141 118.223,229.151Z" style="fill:none;"/>
    </g>
    <g transform="matrix(0.527877,0,0,0.446328,142.21163,580.711864)">
        <path d="M589.225,668.316L196.141,668.316C128.965,668.316 74.427,603.813 74.427,524.364L74.427,276.788C74.427,197.338 128.965,132.835 196.141,132.835L589.225,132.835C656.401,132.835 710.939,197.338 710.939,276.788L710.939,524.364C710.939,603.813 656.401,668.316 589.225,668.316ZM113.746,241.5C110.368,252.516 108.526,264.4 108.526,276.788L108.526,524.364C108.526,581.555 147.785,627.987 196.141,627.987L589.225,627.987C637.581,627.987 676.84,581.555 676.84,524.364L676.84,276.788C676.84,264.4 674.998,252.516 671.621,241.5L113.746,241.5Z" style="fill:white;"/>
    </g>
    <g transform="matrix(0.279924,0,0,0.30468,406.608091,586.975454)">
        <path d="M699.408,561.237L652.864,584.961C644.012,589.472 633.223,589.345 624.499,584.626C615.776,579.907 610.421,571.301 610.421,562L610.421,314C610.421,314 610.812,296.357 629.271,289.311C640.383,285.07 653.252,288.698 660.955,297.191L850.963,506.679C858.062,514.506 859.592,525.399 854.888,534.626C850.185,543.852 840.097,549.745 829.007,549.745L781.735,549.745L810.912,620.129C813.674,626.792 813.368,634.201 810.064,640.653C806.759,647.104 800.742,652.044 793.393,654.337L769.862,661.678C755.237,666.24 739.312,659.302 733.903,646.01L699.408,561.237Z" style="fill:white;"/>
    </g>
    <g transform="matrix(0.527877,0,0,0.728814,642.21163,98.491525)">
        <path d="M537.603,950.186L236.397,950.186C143.867,950.186 68.744,895.775 68.744,828.756L68.744,262.081C68.744,195.062 143.867,140.651 236.397,140.651L537.603,140.651C630.133,140.651 705.256,195.062 705.256,262.081L705.256,828.756C705.256,895.775 630.133,950.186 537.603,950.186ZM105.878,241.5C103.89,248.133 102.843,255.02 102.843,262.081L102.843,828.756C102.843,882.144 162.686,925.488 236.397,925.488L537.603,925.488C611.314,925.488 671.157,882.144 671.157,828.756L671.157,262.081C671.157,255.02 670.11,248.133 668.122,241.5L105.878,241.5Z" style="fill:white;"/>
    </g>
</svg>
