<?xml version="1.0" encoding="UTF-8" standalone="no"?>
<!DOCTYPE svg PUBLIC "-//W3C//DTD SVG 1.1//EN" "http://www.w3.org/Graphics/SVG/1.1/DTD/svg11.dtd">
<svg width="100%" height="100%" viewBox="0 0 1112 1828" version="1.1" xmlns="http://www.w3.org/2000/svg" xmlns:xlink="http://www.w3.org/1999/xlink" xml:space="preserve" xmlns:serif="http://www.serif.com/" style="fill-rule:evenodd;clip-rule:evenodd;stroke-linejoin:round;stroke-miterlimit:2;">
    <g transform="matrix(1,0,0,1,-2111.754111,-539.15508)">
        <g transform="matrix(1,0,0,1,1484,0)">
            <g transform="matrix(13.438608,0,0,13.438608,-3208.968542,-72.301595)">
                <path d="M368.211,118.065C368.211,112.539 366.041,106.292 363.87,100.525C363.147,98.362 362.424,96.44 361.941,94.518L361.7,93.316C359.771,86.589 355.672,72.652 355.672,49.104L355.672,45.5L298.039,45.5L298.039,49.104C298.039,72.412 293.94,86.589 292.011,93.316L291.769,94.518C291.288,96.2 290.564,98.362 289.84,100.525C287.911,106.292 285.5,112.539 285.5,118.065C285.5,131.762 292.252,144.497 303.827,152.186C305.032,152.906 306.238,153.627 307.444,154.348L299.727,173.331C299.004,175.253 299.245,177.175 300.209,178.857C301.415,180.539 303.103,181.5 305.273,181.5L348.437,181.5C350.367,181.5 352.296,180.539 353.501,178.857C354.707,177.175 354.948,175.013 353.984,173.331L346.267,154.588C347.473,153.868 348.678,153.147 349.884,152.426C361.218,144.497 368.211,131.762 368.211,118.065ZM346.508,174.532L306.961,174.532L311.543,162.998L341.686,162.998L346.508,174.532ZM345.785,146.419C344.579,147.14 343.373,147.861 341.927,148.582C339.274,150.023 337.827,152.906 338.792,155.79L314.437,155.79C315.401,152.906 314.195,150.023 311.302,148.582C310.096,147.861 308.649,147.14 307.444,146.419C298.039,140.171 292.493,129.599 292.493,118.306C292.493,113.981 294.422,108.214 296.351,103.168C297.075,101.006 297.798,98.843 298.521,96.92L298.763,95.719C300.692,88.991 304.55,75.536 305.032,53.189L348.437,53.189C348.919,75.536 352.778,88.991 354.707,95.719L354.948,96.92C355.43,98.843 356.154,101.006 357.118,103.168C358.806,108.214 360.976,113.981 360.976,118.306C360.976,129.359 355.189,139.931 345.785,146.419Z" style="fill:white;fill-rule:nonzero;"/>
            </g>
        </g>
    </g>
</svg>
