<?xml version="1.0" encoding="UTF-8" standalone="no"?>
<!DOCTYPE svg PUBLIC "-//W3C//DTD SVG 1.1//EN" "http://www.w3.org/Graphics/SVG/1.1/DTD/svg11.dtd">
<svg width="100%" height="100%" viewBox="0 0 369 184" version="1.1" xmlns="http://www.w3.org/2000/svg" xmlns:xlink="http://www.w3.org/1999/xlink" xml:space="preserve" xmlns:serif="http://www.serif.com/" style="fill-rule:evenodd;clip-rule:evenodd;stroke-linejoin:round;stroke-miterlimit:2;">
    <g transform="matrix(1,0,0,1,-2019.5,-138.936996)">
        <g transform="matrix(1,0,0,1,1484,0)">
            <g transform="matrix(1,0,0,1,720,230.936996)">
                <g transform="matrix(1,0,0,1,-184.5,-92)">
                    <path d="M200.968,38.403C199.056,38.403 197.328,37.712 195.783,36.329C194.197,34.906 193.404,33.279 193.404,31.449C193.404,30.27 193.729,29.68 194.38,29.68C194.786,29.68 195.213,29.965 195.661,30.534C196.23,30.046 197.247,28.521 198.711,25.959C199.361,24.861 200.073,23.743 200.846,22.604C201.618,21.425 202.452,20.449 203.347,19.676C204.241,18.863 205.177,18.456 206.153,18.456C206.925,18.456 207.576,18.639 208.105,19.005C208.715,19.371 209.02,19.818 209.02,20.347C209.02,20.672 208.552,20.835 207.617,20.835C206.722,20.835 205.868,21.12 205.055,21.689C204.282,22.299 203.896,23.051 203.896,23.946C203.896,24.271 203.957,24.617 204.079,24.983L205.604,28.948C205.929,29.721 206.132,30.473 206.214,31.205C206.336,31.896 206.397,32.527 206.397,33.096C208.755,32.73 210.768,31.53 212.436,29.497C212.517,29.375 212.619,29.314 212.741,29.314C212.985,29.314 213.107,29.477 213.107,29.802C213.107,29.883 213.086,29.965 213.046,30.046C213.046,30.127 213.025,30.209 212.985,30.29C211.643,32.405 209.386,33.767 206.214,34.377C206.092,35.028 205.868,35.597 205.543,36.085C205.217,36.573 204.831,36.98 204.384,37.305C203.367,38.037 202.228,38.403 200.968,38.403ZM204.262,33.401L204.262,32.791C204.262,32.344 204.16,31.734 203.957,30.961C203.794,30.188 203.53,29.192 203.164,27.972C202.798,26.752 202.513,25.654 202.31,24.678C202.147,23.661 202.086,23.011 202.127,22.726C201.069,24.434 200.012,26.061 198.955,27.606C197.938,29.111 197.023,30.331 196.21,31.266C197.47,31.876 198.812,32.364 200.236,32.73C201.659,33.096 203.001,33.32 204.262,33.401ZM200.175,36.695C200.988,36.695 201.781,36.553 202.554,36.268C203.367,35.943 203.916,35.373 204.201,34.56C202.371,34.56 200.663,34.377 199.077,34.011C197.531,33.645 196.291,33.076 195.356,32.303L194.99,32.669C196.088,35.353 197.816,36.695 200.175,36.695Z" style="fill:white;fill-opacity:0.71;fill-rule:nonzero;"/>
                    <path d="M187.397,38.037C185.119,38.037 183.981,36.614 183.981,33.767C183.981,33.076 184.286,31.795 184.896,29.924C183.513,31.998 182.598,33.279 182.151,33.767C180.809,35.353 179.609,36.146 178.552,36.146C177.21,36.146 176.539,35.007 176.539,32.73C176.539,31.429 176.966,29.863 177.82,28.033C178.796,25.918 179.812,24.861 180.87,24.861C181.48,24.861 181.785,25.024 181.785,25.349C181.785,25.39 181.683,25.593 181.48,25.959C181.276,26.325 180.87,27.037 180.26,28.094C179.202,29.965 178.674,31.368 178.674,32.303C178.674,33.604 179.06,34.255 179.833,34.255C180.443,34.255 181.358,33.523 182.578,32.059C183.798,30.595 185.221,28.358 186.848,25.349L188.129,22.97C188.454,22.645 188.759,22.482 189.044,22.482C189.41,22.482 189.735,22.624 190.02,22.909C190.345,23.234 190.508,23.6 190.508,24.007C190.508,23.966 190.304,24.332 189.898,25.105C189.532,25.878 189.023,26.874 188.373,28.094C186.909,30.819 186.177,32.954 186.177,34.499C186.177,35.922 186.848,36.634 188.19,36.634C189.288,36.634 190.589,35.983 192.094,34.682C193.07,33.828 194.168,32.608 195.388,31.022C195.835,30.453 196.201,29.985 196.486,29.619C196.811,29.253 196.994,29.07 197.035,29.07C197.157,29.07 197.218,29.192 197.218,29.436C197.218,29.68 197.096,30.026 196.852,30.473C195.672,32.384 194.351,34.011 192.887,35.353C190.894,37.142 189.064,38.037 187.397,38.037Z" style="fill:white;fill-opacity:0.71;fill-rule:nonzero;"/>
                    <path d="M163.758,37.732C162.335,37.732 161.623,36.898 161.623,35.231C161.623,32.913 162.64,30.188 164.673,27.057C164.633,26.854 164.592,26.63 164.551,26.386L164.551,25.715C164.551,24.251 165.039,22.828 166.015,21.445C166.991,20.062 168.191,19.371 169.614,19.371C170.834,19.371 171.648,19.798 172.054,20.652C172.502,21.506 172.725,22.462 172.725,23.519C172.725,24.414 172.623,25.268 172.42,26.081C172.217,26.935 171.912,27.891 171.505,28.948C171.098,30.005 170.59,31.124 169.98,32.303C170.59,32.669 171.282,32.852 172.054,32.852C172.746,32.852 173.396,32.771 174.006,32.608C174.616,32.405 175.186,32.039 175.714,31.51C176.243,30.981 176.649,30.514 176.934,30.107C177.259,29.7 177.402,29.517 177.361,29.558C177.442,29.477 177.524,29.436 177.605,29.436C177.768,29.436 177.89,29.538 177.971,29.741C178.093,29.944 178.073,30.148 177.91,30.351C177.26,31.286 176.405,32.12 175.348,32.852C174.331,33.543 173.213,33.889 171.993,33.889C171.058,33.889 170.244,33.686 169.553,33.279C167.682,36.248 165.751,37.732 163.758,37.732ZM169.187,31.754C169.716,30.453 170.122,29.334 170.407,28.399C170.692,27.464 170.834,26.589 170.834,25.776L170.834,25.288C170.834,24.19 170.651,23.173 170.285,22.238C169.919,21.262 169.39,20.774 168.699,20.774C167.764,20.774 167.032,21.343 166.503,22.482C166.137,23.255 165.954,24.109 165.954,25.044L165.954,25.41C166.605,24.637 167.255,24.251 167.906,24.251C168.516,24.251 168.964,24.454 169.248,24.861C169.37,25.024 169.431,25.166 169.431,25.288C169.431,25.532 169.187,25.654 168.699,25.654C167.967,25.654 167.194,26.427 166.381,27.972C166.95,29.558 167.886,30.819 169.187,31.754ZM164.734,36.268C165.263,36.268 166.015,35.78 166.991,34.804C167.398,34.397 167.744,34.011 168.028,33.645C168.313,33.279 168.536,32.933 168.699,32.608C167.316,31.673 166.3,30.636 165.649,29.497C164.429,32.059 163.819,33.909 163.819,35.048C163.819,35.861 164.124,36.268 164.734,36.268Z" style="fill:white;fill-opacity:0.71;fill-rule:nonzero;"/>
                    <path d="M157.737,21.445C156.761,21.445 156.273,20.957 156.273,19.981C156.273,19.493 156.456,19.066 156.822,18.7C157.228,18.293 157.696,18.09 158.225,18.09C159.201,18.09 159.689,18.578 159.689,19.554C159.689,20.042 159.506,20.469 159.14,20.835C158.733,21.242 158.265,21.445 157.737,21.445ZM154.199,38.037C151.962,38.037 150.844,36.837 150.844,34.438C150.844,33.299 151.25,31.632 152.064,29.436C152.43,28.419 152.796,27.565 153.162,26.874C153.568,26.142 153.975,25.471 154.382,24.861C154.626,24.495 154.91,24.312 155.236,24.312C155.561,24.312 155.886,24.475 156.212,24.8C156.415,25.003 156.517,25.268 156.517,25.593C156.517,25.878 156.435,26.162 156.273,26.447C155.378,27.83 154.646,29.233 154.077,30.656C153.507,32.039 153.223,33.279 153.223,34.377C153.223,35.841 153.751,36.573 154.809,36.573C155.378,36.573 156.029,36.431 156.761,36.146C157.493,35.821 158.225,35.333 158.957,34.682C159.445,34.235 159.953,33.726 160.482,33.157C161.051,32.588 161.62,31.917 162.19,31.144C163.247,29.843 163.776,29.192 163.776,29.192C163.979,29.192 164.081,29.355 164.081,29.68C164.081,30.005 163.938,30.331 163.654,30.656C159.953,35.577 156.801,38.037 154.199,38.037Z" style="fill:white;fill-opacity:0.71;fill-rule:nonzero;"/>
                    <path d="M143.651,37.976C142.268,37.976 141.292,37.61 140.723,36.878C140.194,36.146 139.93,35.211 139.93,34.072C139.93,33.137 140.072,32.161 140.357,31.144C140.682,30.087 141.068,29.111 141.516,28.216C141.963,27.321 142.349,26.61 142.675,26.081C142.553,26.122 142.431,26.162 142.309,26.203L141.882,26.203C141.312,26.203 140.682,26 139.991,25.593C139.259,25.105 138.893,24.597 138.893,24.068C138.649,24.637 138.303,25.288 137.856,26.02C137.449,26.752 136.961,27.545 136.392,28.399C134.887,30.758 133.891,31.937 133.403,31.937C133.24,31.937 133.159,31.856 133.159,31.693C133.159,31.53 133.281,31.286 133.525,30.961C134.297,29.904 135.07,28.684 135.843,27.301C136.656,25.918 137.469,24.373 138.283,22.665C138.242,22.462 138.201,22.258 138.161,22.055L138.161,21.323C138.161,20.388 138.344,19.31 138.71,18.09C139.157,16.545 139.706,15.772 140.357,15.772C140.763,15.772 141.15,16.138 141.516,16.87C141.638,17.155 141.739,17.439 141.821,17.724C141.902,17.968 141.943,18.232 141.943,18.517C141.943,19.493 141.109,20.977 139.442,22.97C139.808,24.231 140.519,24.861 141.577,24.861C142.349,24.861 143.061,24.475 143.712,23.702C144.403,22.889 144.891,22.482 145.176,22.482C145.542,22.482 145.867,22.624 146.152,22.909C146.436,23.194 146.579,23.56 146.579,24.007C146.579,23.966 146.314,24.332 145.786,25.105C145.298,25.878 144.728,26.955 144.078,28.338C143.427,29.721 142.959,30.9 142.675,31.876C142.431,32.852 142.309,33.726 142.309,34.499C142.309,35.922 142.98,36.634 144.322,36.634C145.623,36.634 147.27,35.638 149.263,33.645C149.913,32.954 150.666,32.079 151.52,31.022C152.577,29.721 153.106,29.07 153.106,29.07C153.268,29.07 153.35,29.192 153.35,29.436C153.35,29.761 153.228,30.107 152.984,30.473C152.414,31.368 151.784,32.262 151.093,33.157C150.442,34.011 149.832,34.702 149.263,35.231C147.392,37.061 145.521,37.976 143.651,37.976Z" style="fill:white;fill-opacity:0.71;fill-rule:nonzero;"/>
                    <path d="M120.927,37.732C119.504,37.732 118.792,36.898 118.792,35.231C118.792,32.913 119.809,30.188 121.842,27.057C121.801,26.854 121.761,26.63 121.72,26.386L121.72,25.715C121.72,24.251 122.208,22.828 123.184,21.445C124.16,20.062 125.36,19.371 126.783,19.371C128.003,19.371 128.816,19.798 129.223,20.652C129.67,21.506 129.894,22.462 129.894,23.519C129.894,24.414 129.792,25.268 129.589,26.081C129.386,26.935 129.081,27.891 128.674,28.948C128.267,30.005 127.759,31.124 127.149,32.303C127.759,32.669 128.45,32.852 129.223,32.852C129.914,32.852 130.565,32.771 131.175,32.608C131.785,32.405 132.354,32.039 132.883,31.51C133.412,30.981 133.818,30.514 134.103,30.107C134.428,29.7 134.571,29.517 134.53,29.558C134.611,29.477 134.693,29.436 134.774,29.436C134.937,29.436 135.059,29.538 135.14,29.741C135.262,29.944 135.242,30.148 135.079,30.351C134.428,31.286 133.574,32.12 132.517,32.852C131.5,33.543 130.382,33.889 129.162,33.889C128.227,33.889 127.413,33.686 126.722,33.279C124.851,36.248 122.92,37.732 120.927,37.732ZM126.356,31.754C126.885,30.453 127.291,29.334 127.576,28.399C127.861,27.464 128.003,26.589 128.003,25.776L128.003,25.288C128.003,24.19 127.82,23.173 127.454,22.238C127.088,21.262 126.559,20.774 125.868,20.774C124.933,20.774 124.201,21.343 123.672,22.482C123.306,23.255 123.123,24.109 123.123,25.044L123.123,25.41C123.774,24.637 124.424,24.251 125.075,24.251C125.685,24.251 126.132,24.454 126.417,24.861C126.539,25.024 126.6,25.166 126.6,25.288C126.6,25.532 126.356,25.654 125.868,25.654C125.136,25.654 124.363,26.427 123.55,27.972C124.119,29.558 125.055,30.819 126.356,31.754ZM121.903,36.268C122.432,36.268 123.184,35.78 124.16,34.804C124.567,34.397 124.912,34.011 125.197,33.645C125.482,33.279 125.705,32.933 125.868,32.608C124.485,31.673 123.469,30.636 122.818,29.497C121.598,32.059 120.988,33.909 120.988,35.048C120.988,35.861 121.293,36.268 121.903,36.268Z" style="fill:white;fill-opacity:0.71;fill-rule:nonzero;"/>
                    <path d="M111.3,37.793C109.104,37.793 107.742,36.471 107.213,33.828C107.172,33.462 107.111,33.096 107.03,32.73C106.989,32.364 106.969,31.998 106.969,31.632C106.969,29.802 107.294,27.931 107.945,26.02C108.636,24.109 109.47,22.238 110.446,20.408C111.422,18.578 112.317,16.89 113.13,15.345C113.903,13.922 114.757,12.519 115.692,11.136C116.668,9.713 117.624,8.411 118.559,7.232C119.494,6.053 120.287,5.097 120.938,4.365C121.995,3.186 123.012,2.352 123.988,1.864C124.964,1.335 125.838,1.071 126.611,1.071C127.14,1.071 127.607,1.335 128.014,1.864C128.461,2.433 128.685,2.982 128.685,3.511C128.685,6.317 126.062,11.014 120.816,17.602C118.742,20.205 116.749,22.563 114.838,24.678C112.927,26.752 111.076,28.623 109.287,30.29C109.246,30.615 109.206,30.961 109.165,31.327L109.165,32.303C109.165,33.686 109.389,34.743 109.836,35.475C110.283,36.166 111.076,36.512 112.215,36.512C113.354,36.512 114.675,35.861 116.18,34.56C117.725,33.218 119.311,31.347 120.938,28.948C121.06,28.745 121.202,28.623 121.365,28.582C121.609,28.582 121.731,28.724 121.731,29.009C121.731,29.212 121.69,29.375 121.609,29.497C121.04,30.473 120.389,31.408 119.657,32.303C118.966,33.198 118.173,34.052 117.278,34.865C116.261,35.76 115.245,36.471 114.228,37C113.252,37.529 112.276,37.793 111.3,37.793ZM109.409,28.948C110.548,27.972 111.89,26.569 113.435,24.739C115.021,22.868 116.688,20.693 118.437,18.212C122.382,12.763 124.74,8.818 125.513,6.378C125.879,5.199 126.062,4.324 126.062,3.755C126.062,2.982 125.798,2.596 125.269,2.596C124.09,2.596 122.646,3.735 120.938,6.012C119.962,7.313 118.823,8.981 117.522,11.014C116.221,13.007 114.96,15.182 113.74,17.541C112.317,20.266 111.3,22.523 110.69,24.312C110.121,26.101 109.694,27.647 109.409,28.948Z" style="fill:white;fill-opacity:0.71;fill-rule:nonzero;"/>
                    <path d="M71.781,53.226C65.762,53.226 62.753,50.745 62.753,45.784C62.753,39.074 69.219,33.076 82.151,27.789C81.663,26.976 81.419,26.264 81.419,25.654C81.419,20.937 84.306,16.423 90.081,12.112C94.717,8.655 99.76,6.093 105.209,4.426C105.331,3.694 105.636,3.328 106.124,3.328C106.897,3.328 107.486,3.775 107.893,4.67C111.065,4.955 112.651,5.971 112.651,7.72C112.651,8.249 112.387,8.899 111.858,9.672C111.329,10.445 110.78,10.831 110.211,10.831C109.926,10.831 109.784,10.689 109.784,10.404C109.784,10.323 109.926,9.997 110.211,9.428C110.496,8.859 110.638,8.33 110.638,7.842C110.638,6.703 109.926,6.134 108.503,6.134C108.259,6.134 108.076,6.154 107.954,6.195C107.913,6.724 107.812,7.395 107.649,8.208C107.527,8.981 107.303,10.241 106.978,11.99C106.734,13.251 106.449,14.633 106.124,16.138C105.839,17.602 105.494,19.208 105.087,20.957C105.331,20.916 105.575,20.896 105.819,20.896L106.49,20.896C108.564,20.896 109.601,21.242 109.601,21.933C109.601,22.34 109.276,22.543 108.625,22.543L108.259,22.543C108.096,22.543 107.913,22.523 107.71,22.482C107.507,22.441 107.303,22.421 107.1,22.421L106.673,22.421C106.266,22.421 105.9,22.441 105.575,22.482C105.25,22.482 104.945,22.502 104.66,22.543C101.244,35.841 94.412,45.093 84.164,50.298C80.341,52.25 76.214,53.226 71.781,53.226ZM84.164,26.996C85.872,26.345 87.661,25.715 89.532,25.105C91.403,24.454 93.355,23.844 95.388,23.275C96.567,22.177 97.665,20.998 98.682,19.737C99.74,18.436 100.736,16.992 101.671,15.406C103.664,12.112 104.843,8.981 105.209,6.012C98.458,7.923 93.09,11.095 89.105,15.528C87.885,16.87 86.767,18.456 85.75,20.286C84.53,22.401 83.92,24.231 83.92,25.776C83.92,26.264 84.001,26.671 84.164,26.996ZM98.255,22.482C98.906,22.319 99.556,22.157 100.207,21.994C100.898,21.831 101.59,21.669 102.281,21.506L103.501,15.284C102.728,16.585 101.895,17.846 101,19.066C100.146,20.245 99.231,21.384 98.255,22.482ZM73.428,51.213C77.129,51.213 80.565,50.522 83.737,49.139C92.562,45.357 98.601,36.675 101.854,23.092C100.756,23.377 99.739,23.661 98.804,23.946C97.869,24.19 97.015,24.414 96.242,24.617C92.541,28.277 89.105,30.107 85.933,30.107C84.754,30.107 83.798,29.741 83.066,29.009C71.151,33.767 65.193,39.094 65.193,44.991C65.193,49.139 67.938,51.213 73.428,51.213ZM86.177,28.094C88.048,28.094 90.142,27.301 92.46,25.715C91.2,26.081 89.979,26.467 88.8,26.874C87.661,27.24 86.563,27.626 85.506,28.033C85.628,28.074 85.852,28.094 86.177,28.094Z" style="fill:white;fill-opacity:0.71;fill-rule:nonzero;"/>
                    <path d="M56.369,37.366C55.027,37.366 53.848,36.98 52.831,36.207C51.814,35.434 51.306,34.133 51.306,32.303C51.306,31.205 51.55,30.026 52.038,28.765C52.526,27.464 53.177,26.244 53.99,25.105C54.844,23.966 55.779,23.031 56.796,22.299C57.813,21.567 58.85,21.201 59.907,21.201C60.314,21.201 60.659,21.343 60.944,21.628C61.269,21.913 61.432,22.34 61.432,22.909C61.432,24.17 60.476,25.695 58.565,27.484C57.792,28.216 56.979,28.867 56.125,29.436C55.312,30.005 54.559,30.412 53.868,30.656C53.705,31.185 53.624,31.795 53.624,32.486C53.624,33.421 53.848,34.275 54.295,35.048C54.742,35.821 55.454,36.207 56.43,36.207C57.65,36.207 58.768,35.861 59.785,35.17C60.802,34.479 61.737,33.645 62.591,32.669C63.445,31.652 64.197,30.717 64.848,29.863C65.133,29.456 65.417,29.253 65.702,29.253C65.865,29.253 65.946,29.334 65.946,29.497C65.946,29.578 65.926,29.68 65.885,29.802C65.844,29.883 65.804,29.965 65.763,30.046C65.072,31.022 64.279,32.079 63.384,33.218C62.489,34.357 61.473,35.333 60.334,36.146C59.195,36.959 57.874,37.366 56.369,37.366ZM54.295,29.436C55.352,28.989 56.45,28.196 57.589,27.057C58.931,25.756 59.602,24.617 59.602,23.641C59.602,23.153 59.358,22.909 58.87,22.909C58.219,22.909 57.325,23.844 56.186,25.715C55.169,27.26 54.539,28.501 54.295,29.436Z" style="fill:white;fill-opacity:0.71;fill-rule:nonzero;"/>
                    <path d="M44.563,37.366C42.367,37.366 41.269,36.044 41.269,33.401C41.269,32.506 41.431,31.449 41.757,30.229C42.123,28.968 42.57,27.809 43.099,26.752C42.529,27.281 41.818,27.972 40.964,28.826C40.11,29.68 39.276,30.615 38.463,31.632C36.877,33.584 35.657,35.272 34.803,36.695C34.355,37.02 33.827,37.183 33.217,37.183C32.119,37.183 31.57,36.919 31.57,36.39C31.57,35.943 31.793,35.109 32.241,33.889C32.688,32.669 33.339,31.083 34.193,29.131C35.494,26.162 36.856,23.316 38.28,20.591C39.744,17.826 41.289,15.182 42.916,12.661C47.836,4.812 51.883,0.888 55.055,0.888C56.803,0.888 57.678,1.884 57.678,3.877C57.678,6.48 55.563,10.119 51.334,14.796C50.439,15.772 49.219,17.033 47.674,18.578C46.169,20.083 44.278,21.872 42.001,23.946C41.472,24.434 40.699,25.105 39.683,25.959C38.707,26.813 37.71,27.748 36.694,28.765C36.572,28.928 36.409,29.253 36.206,29.741C36.002,30.229 35.738,30.859 35.413,31.632C34.762,33.218 34.437,34.214 34.437,34.621C34.477,34.662 34.498,34.723 34.498,34.804C34.945,34.235 35.596,33.482 36.45,32.547C37.344,31.571 38.3,30.514 39.317,29.375C40.252,28.358 41.147,27.403 42.001,26.508C42.855,25.613 43.526,25.003 44.014,24.678C44.38,24.434 44.705,24.312 44.99,24.312C45.803,24.312 46.21,24.739 46.21,25.593L44.746,28.765C43.77,30.88 43.282,32.547 43.282,33.767C43.282,35.19 43.973,35.902 45.356,35.902C46.494,35.902 47.714,35.312 49.016,34.133C49.951,33.32 50.907,32.222 51.883,30.839L53.225,28.948C53.306,28.826 53.408,28.765 53.53,28.765C53.652,28.765 53.753,28.826 53.835,28.948C53.957,29.07 53.977,29.212 53.896,29.375C53.814,29.619 53.631,29.944 53.347,30.351C51.964,32.384 50.541,34.072 49.077,35.414C47.613,36.715 46.108,37.366 44.563,37.366ZM37.426,26.63C38.849,25.573 40.496,24.17 42.367,22.421C44.278,20.672 46.291,18.558 48.406,16.077C53.164,10.587 55.543,6.683 55.543,4.365C55.543,3.023 55.095,2.352 54.201,2.352C52.005,2.352 48.894,5.727 44.868,12.478C43.485,14.796 42.123,17.175 40.781,19.615C39.479,22.055 38.361,24.393 37.426,26.63Z" style="fill:white;fill-opacity:0.71;fill-rule:nonzero;"/>
                    <path d="M19.385,39.928C17.392,39.928 16.396,38.667 16.396,36.146C16.396,33.096 17.799,28.46 20.605,22.238C21.622,19.961 22.699,17.724 23.838,15.528C24.977,13.332 26.176,11.177 27.437,9.062L18.287,11.685C16.457,12.214 14.79,12.58 13.285,12.783C11.78,12.986 10.377,13.088 9.076,13.088C5.375,13.088 3.525,12.132 3.525,10.221C3.525,9.652 3.728,9.042 4.135,8.391C5.314,6.602 7.409,5.239 10.418,4.304C12.858,3.531 15.4,3.145 18.043,3.145C20.442,3.145 22.191,3.308 23.289,3.633C23.818,3.796 24.082,4.06 24.082,4.426C24.082,4.751 23.919,4.914 23.594,4.914L23.411,4.914C21.744,4.914 20.483,4.833 19.629,4.67C18.775,4.507 18.307,4.426 18.226,4.426C16.152,4.426 14.017,4.711 11.821,5.28C9.056,6.012 7.185,6.988 6.209,8.208C5.802,8.655 5.599,9.062 5.599,9.428C5.599,10.445 6.839,10.953 9.32,10.953C10.499,10.953 11.902,10.831 13.529,10.587C15.196,10.302 17.047,9.896 19.08,9.367C20.544,8.96 21.784,8.635 22.801,8.391C23.858,8.106 24.855,7.842 25.79,7.598C26.725,7.313 27.762,7.008 28.901,6.683C28.942,6.602 29.084,6.378 29.328,6.012C29.572,5.605 29.816,5.26 30.06,4.975C30.629,4.365 31.605,4.06 32.988,4.06C33.517,4.06 33.781,4.162 33.781,4.365C33.781,4.446 33.435,4.955 32.744,5.89C34.005,5.687 35.204,5.524 36.343,5.402C37.522,5.28 38.641,5.219 39.698,5.219C41.935,5.219 44.192,5.809 46.469,6.988C49.112,8.411 50.434,10.099 50.434,12.051C50.434,12.702 50.231,13.027 49.824,13.027C49.621,13.027 49.478,12.844 49.397,12.478C49.275,11.827 49.112,11.299 48.909,10.892C48.584,10.282 48.075,9.733 47.384,9.245C46.693,8.716 45.9,8.289 45.005,7.964C43.378,7.354 41.731,7.049 40.064,7.049C37.461,7.049 34.472,7.415 31.097,8.147C28.21,12.254 25.566,16.728 23.167,21.567C20.198,27.545 18.714,32.466 18.714,36.329C18.714,37.915 18.978,38.708 19.507,38.708C19.832,38.708 20.341,38.484 21.032,38.037C21.764,37.549 22.13,37.305 22.13,37.305C22.496,37.305 22.679,37.488 22.679,37.854C22.679,38.301 22.272,38.749 21.459,39.196C20.605,39.684 19.914,39.928 19.385,39.928Z" style="fill:white;fill-opacity:0.71;fill-rule:nonzero;"/>
                    <path d="M255.784,182.224L255.784,117.844L268.898,117.844L268.898,173.322L284,173.322L284,182.224L255.784,182.224Z" style="fill:rgb(255,204,0);fill-rule:nonzero;"/>
                    <path d="M209.837,182.224L222.315,117.844L236.861,117.844L249.26,182.224L237.099,182.224L234.794,168.077L224.62,168.077L222.156,182.224L209.837,182.224ZM225.813,160.049L233.522,160.049L229.628,134.058L225.813,160.049Z" style="fill:rgb(255,204,0);fill-rule:nonzero;"/>
                    <path d="M169.006,182.224L169.006,117.844L178.147,117.844L192.453,151.385L192.453,117.844L203.263,117.844L203.263,182.224L194.52,182.224L180.213,146.616L180.213,182.224L169.006,182.224Z" style="fill:rgb(255,204,0);fill-rule:nonzero;"/>
                    <path d="M122.668,182.224L122.668,117.844L139.359,117.844C143.704,117.844 147.413,118.347 150.486,119.354C153.613,120.308 155.997,122.03 157.64,124.521C159.335,127.011 160.183,130.455 160.183,134.853C160.183,137.503 159.945,139.861 159.468,141.927C159.044,143.941 158.249,145.716 157.083,147.252C155.971,148.736 154.381,149.928 152.314,150.829L161.216,182.224L147.784,182.224L140.392,153.054L135.782,153.054L135.782,182.224L122.668,182.224ZM135.782,145.265L139.597,145.265C141.717,145.265 143.386,144.921 144.605,144.232C145.823,143.543 146.671,142.51 147.148,141.132C147.678,139.702 147.943,137.953 147.943,135.886C147.943,132.919 147.387,130.667 146.274,129.131C145.214,127.541 143.201,126.746 140.233,126.746L135.782,126.746L135.782,145.265Z" style="fill:rgb(255,204,0);fill-rule:nonzero;"/>
                    <path d="M94.839,183.099C89.964,183.099 86.176,182.277 83.473,180.635C80.771,178.939 78.864,176.528 77.751,173.402C76.691,170.223 76.161,166.381 76.161,161.877L76.161,117.844L89.117,117.844L89.117,163.705C89.117,165.295 89.223,166.858 89.435,168.394C89.7,169.931 90.229,171.176 91.024,172.13C91.872,173.084 93.144,173.561 94.839,173.561C96.588,173.561 97.86,173.084 98.654,172.13C99.502,171.176 100.032,169.931 100.244,168.394C100.456,166.858 100.562,165.295 100.562,163.705L100.562,117.844L113.517,117.844L113.517,161.877C113.517,166.381 112.961,170.223 111.848,173.402C110.789,176.528 108.908,178.939 106.205,180.635C103.503,182.277 99.714,183.099 94.839,183.099Z" style="fill:rgb(255,204,0);fill-rule:nonzero;"/>
                    <path d="M48.885,183.099C44.169,183.099 40.434,182.251 37.678,180.555C34.923,178.86 32.936,176.449 31.717,173.322C30.552,170.143 29.969,166.354 29.969,161.956L29.969,137.953C29.969,133.555 30.552,129.793 31.717,126.667C32.936,123.54 34.923,121.156 37.678,119.513C40.434,117.871 44.169,117.049 48.885,117.049C53.654,117.049 57.416,117.897 60.172,119.593C62.98,121.235 64.967,123.62 66.133,126.746C67.352,129.819 67.961,133.555 67.961,137.953L67.961,161.956C67.961,166.354 67.352,170.143 66.133,173.322C64.967,176.449 62.98,178.86 60.172,180.555C57.416,182.251 53.654,183.099 48.885,183.099ZM48.885,173.64C50.581,173.64 51.826,173.269 52.621,172.527C53.416,171.733 53.946,170.699 54.211,169.428C54.475,168.103 54.608,166.699 54.608,165.215L54.608,134.774C54.608,133.29 54.475,131.912 54.211,130.641C53.946,129.369 53.416,128.362 52.621,127.62C51.826,126.826 50.581,126.428 48.885,126.428C47.296,126.428 46.103,126.826 45.309,127.62C44.514,128.362 43.984,129.369 43.719,130.641C43.454,131.912 43.322,133.29 43.322,134.774L43.322,165.215C43.322,166.699 43.428,168.103 43.639,169.428C43.904,170.699 44.434,171.733 45.229,172.527C46.024,173.269 47.243,173.64 48.885,173.64Z" style="fill:rgb(255,204,0);fill-rule:nonzero;"/>
                    <path d="M0.094,183.893L0.094,174.673C1.631,174.673 2.929,174.594 3.989,174.435C5.048,174.223 5.87,173.879 6.453,173.402C7.036,172.872 7.459,172.13 7.724,171.176C7.989,170.223 8.122,168.977 8.122,167.441L8.122,117.844L21.236,117.844L21.236,167.997C21.236,171.547 20.812,174.515 19.965,176.899C19.117,179.23 17.607,180.979 15.434,182.145C13.315,183.31 10.321,183.893 6.453,183.893L0.094,183.893Z" style="fill:rgb(255,204,0);fill-rule:nonzero;"/>
                    <path d="M258.776,110.535L258.776,85.021L246.218,46.155L258.537,46.155L265.452,68.807L271.89,46.155L283.812,46.155L271.413,85.021L271.413,110.535L258.776,110.535Z" style="fill:rgb(255,204,0);fill-rule:nonzero;"/>
                    <path d="M215.5,110.535L215.5,46.155L243.557,46.155L243.557,55.216L228.614,55.216L228.614,72.304L240.139,72.304L240.139,81.445L228.614,81.445L228.614,101.633L243.716,101.633L243.716,110.535L215.5,110.535Z" style="fill:rgb(255,204,0);fill-rule:nonzero;"/>
                    <path d="M171.645,110.535L171.645,46.155L184.76,46.155L184.76,73.338L196.364,46.155L209.081,46.155L197,75.086L209.955,110.535L196.761,110.535L186.826,81.683L184.76,85.339L184.76,110.535L171.645,110.535Z" style="fill:rgb(255,204,0);fill-rule:nonzero;"/>
                    <path d="M148.208,111.409C144.233,111.409 140.922,110.694 138.272,109.263C135.623,107.78 133.609,105.581 132.232,102.666C130.907,99.699 130.139,95.937 129.927,91.38L141.213,89.472C141.319,92.122 141.584,94.347 142.008,96.149C142.485,97.897 143.174,99.222 144.074,100.123C145.028,100.971 146.194,101.395 147.572,101.395C149.267,101.395 150.407,100.865 150.989,99.805C151.625,98.745 151.943,97.526 151.943,96.149C151.943,93.446 151.281,91.194 149.956,89.393C148.684,87.538 146.989,85.684 144.869,83.829L138.193,78.027C135.808,76.013 133.848,73.735 132.311,71.192C130.828,68.648 130.086,65.522 130.086,61.813C130.086,56.514 131.622,52.46 134.696,49.652C137.822,46.791 142.087,45.36 147.492,45.36C150.724,45.36 153.374,45.89 155.44,46.95C157.507,48.009 159.097,49.44 160.209,51.242C161.375,52.99 162.17,54.924 162.594,57.044C163.071,59.11 163.362,61.177 163.468,63.243L152.261,64.912C152.155,62.952 151.97,61.23 151.705,59.746C151.493,58.263 151.016,57.097 150.274,56.249C149.585,55.401 148.525,54.977 147.095,54.977C145.558,54.977 144.419,55.56 143.677,56.726C142.935,57.839 142.564,59.084 142.564,60.462C142.564,62.74 143.068,64.621 144.074,66.105C145.134,67.535 146.565,69.046 148.366,70.635L154.884,76.358C157.586,78.689 159.891,81.365 161.799,84.385C163.759,87.353 164.74,91.035 164.74,95.433C164.74,98.454 164.051,101.183 162.673,103.62C161.295,106.057 159.361,107.965 156.871,109.343C154.434,110.72 151.546,111.409 148.208,111.409Z" style="fill:rgb(255,204,0);fill-rule:nonzero;"/>
                    <rect x="108.623" y="46.155" width="13.035" height="64.38" style="fill:rgb(255,204,0);fill-rule:nonzero;"/>
                    <path d="M60.965,110.535L60.965,46.155L74.079,46.155L74.079,72.622L85.445,72.622L85.445,46.155L98.559,46.155L98.559,110.535L85.445,110.535L85.445,82.001L74.079,82.001L74.079,110.535L60.965,110.535Z" style="fill:rgb(255,204,0);fill-rule:nonzero;"/>
                    <path d="M10.645,110.535L2.299,46.155L13.427,46.155L17.878,85.498L23.521,46.234L32.343,46.234L38.225,85.419L42.676,46.155L53.644,46.155L45.378,110.535L34.251,110.535L27.972,69.761L22.011,110.535L10.645,110.535Z" style="fill:rgb(255,204,0);fill-rule:nonzero;"/>
                    <path d="M368.711,118.565C368.711,113.039 366.541,106.792 364.37,101.025C363.647,98.862 362.924,96.94 362.441,95.018L362.2,93.816C360.271,87.089 356.172,73.152 356.172,49.604L356.172,46L298.539,46L298.539,49.604C298.539,72.912 294.44,87.089 292.511,93.816L292.269,95.018C291.788,96.7 291.064,98.862 290.34,101.025C288.411,106.792 286,113.039 286,118.565C286,132.261 292.752,144.996 304.327,152.686C305.532,153.406 306.738,154.127 307.944,154.848L300.227,173.831C299.504,175.753 299.745,177.675 300.709,179.357C301.915,181.039 303.603,182 305.774,182L348.937,182C350.867,182 352.796,181.039 354.001,179.357C355.207,177.675 355.448,175.513 354.484,173.831L346.767,155.088C347.973,154.368 349.178,153.647 350.384,152.926C361.717,144.996 368.711,132.261 368.711,118.565ZM347.008,175.032L307.461,175.032L312.043,163.498L342.186,163.498L347.008,175.032ZM346.285,146.919C345.079,147.64 343.873,148.361 342.427,149.082C339.774,150.523 338.327,153.406 339.292,156.29L314.937,156.29C315.901,153.406 314.695,150.523 311.802,149.082C310.596,148.361 309.149,147.64 307.944,146.919C298.539,140.672 292.993,130.099 292.993,118.806C292.993,114.481 294.922,108.714 296.851,103.668C297.575,101.506 298.298,99.343 299.021,97.42L299.263,96.219C301.192,89.491 305.05,76.036 305.532,53.689L348.937,53.689C349.419,76.036 353.278,89.491 355.207,96.219L355.448,97.42C355.93,99.343 356.654,101.506 357.618,103.668C359.306,108.714 361.476,114.481 361.476,118.806C361.476,129.859 355.689,140.431 346.285,146.919Z" style="fill:rgb(255,205,52);fill-rule:nonzero;"/>
                    <g>
                        <path d="M368.211,118.065C368.211,112.539 366.041,106.292 363.87,100.525C363.147,98.362 362.424,96.44 361.941,94.518L361.7,93.316C359.771,86.589 355.672,72.652 355.672,49.104L355.672,45.5L298.039,45.5L298.039,49.104C298.039,72.412 293.94,86.589 292.011,93.316L291.769,94.518C291.288,96.2 290.564,98.362 289.84,100.525C287.911,106.292 285.5,112.539 285.5,118.065C285.5,131.762 292.252,144.497 303.827,152.186C305.032,152.906 306.238,153.627 307.444,154.348L299.727,173.331C299.004,175.253 299.245,177.175 300.209,178.857C301.415,180.539 303.103,181.5 305.273,181.5L348.437,181.5C350.367,181.5 352.296,180.539 353.501,178.857C354.707,177.175 354.948,175.013 353.984,173.331L346.267,154.588C347.473,153.868 348.678,153.147 349.884,152.426C361.218,144.497 368.211,131.762 368.211,118.065ZM346.508,174.532L306.961,174.532L311.543,162.998L341.686,162.998L346.508,174.532ZM345.785,146.419C344.579,147.14 343.373,147.861 341.927,148.582C339.274,150.023 337.827,152.906 338.792,155.79L314.437,155.79C315.401,152.906 314.195,150.023 311.302,148.582C310.096,147.861 308.649,147.14 307.444,146.419C298.039,140.171 292.493,129.599 292.493,118.306C292.493,113.981 294.422,108.214 296.351,103.168C297.075,101.006 297.798,98.843 298.521,96.92L298.763,95.719C300.692,88.991 304.55,75.536 305.032,53.189L348.437,53.189C348.919,75.536 352.778,88.991 354.707,95.719L354.948,96.92C355.43,98.843 356.154,101.006 357.118,103.168C358.806,108.214 360.976,113.981 360.976,118.306C360.976,129.359 355.189,139.931 345.785,146.419Z" style="fill:rgb(255,205,52);fill-rule:nonzero;"/>
                        <path d="M346.129,144.129C344.923,144.85 342.509,146.429 341.062,147.149C338.409,148.591 336.27,151.417 336.693,154.178L316.201,154.26C316.368,151.439 315.645,149.718 312.587,147.521C311.382,146.801 309.401,145.711 308.196,144.991C298.791,138.743 293.574,125.987 294.245,118.087C294.897,110.411 297.681,104.599 298.308,103.284C317.096,104.507 320.305,126.462 359.202,118.369C358.689,128.912 353.557,138.597 346.129,144.129Z" style="fill:url(#_Linear1);fill-rule:nonzero;"/>
                        <path d="M303.5,141C290.434,125.516 293.604,113.873 298.323,103.29C299.28,101.29 306.7,86.3 307.5,55.5L316.5,55.5C316.5,64.833 315,87.3 309,106.5C299.5,129.5 319.5,148.5 316.712,154.206L316.233,154.246C316.692,150.418 313.422,148.105 313.422,148.105C311.887,146.59 307.296,145.498 303.5,141Z" style="fill:white;fill-opacity:0.5;fill-rule:nonzero;"/>
                        <path d="M298.325,103.285C302.444,103.556 305.814,104.824 308.978,106.553C299.532,129.53 319.498,148.505 316.712,154.206L316.233,154.246C316.337,153.38 316.25,152.592 316.053,151.891C315.851,151.018 315.453,150.233 314.78,149.449C314.09,148.578 313.422,148.105 313.422,148.105C312.837,147.528 311.809,147.012 310.551,146.346C309.702,145.864 308.838,145.375 308.196,144.991C306.536,143.888 305.006,142.582 303.617,141.137C303.578,141.091 303.539,141.046 303.5,141C300.104,136.976 297.805,133.211 296.344,129.655C295.558,127.662 294.978,125.673 294.619,123.781C294.271,121.814 294.165,119.91 294.247,118.06C294.559,114.421 295.349,111.202 296.16,108.684C296.793,106.848 297.537,105.054 298.323,103.29L298.325,103.285Z" style="fill:rgb(255,181,0);fill-opacity:0.87;fill-rule:nonzero;"/>
                        <path d="M309,173.5L312.5,164L318,164L316.233,173.5L309,173.5Z" style="fill:white;fill-opacity:0.5;fill-rule:nonzero;"/>
                        <path d="M345,173.5L341,164L339.5,164L343.5,173.5L345,173.5Z" style="fill:white;fill-opacity:0.5;fill-rule:nonzero;"/>
                        <path d="M350.117,140.559C360.617,129.059 361.5,113.5 355.158,103.29C354.201,101.29 346.781,86.3 345.981,55.5L345.5,55.5C345.5,64.833 347.5,87 354,103.29C361.643,120.211 356.11,132.598 349,140C342.683,146.577 336.682,146 335.644,153.029L326.797,153.596C321.854,153.841 316.674,154.095 316.65,154.246L336.682,154.246C336.224,150.418 339.74,147.966 339.74,147.966C342,146.404 346.148,144.905 350.117,140.559Z" style="fill:white;fill-opacity:0.5;fill-rule:nonzero;"/>
                        <path d="M359.147,118.381C359.138,118.961 359.114,119.544 359.073,120.129C358.171,129.33 353.78,137.722 347.492,143.046C346.888,143.541 346.289,143.985 345.704,144.388C344.901,144.881 343.795,145.584 342.762,146.199C342.17,146.533 341.615,146.837 341.107,147.126L341.062,147.149C340.874,147.251 340.688,147.36 340.506,147.476C340.232,147.641 339.976,147.803 339.74,147.966C339.74,147.966 337.552,149.492 336.853,152.015C336.701,152.537 336.626,153.071 336.641,153.606C336.643,153.793 336.653,153.984 336.674,154.178L319.7,154.246L316.65,154.246C316.674,154.095 321.854,153.841 326.797,153.596L335.644,153.029C336.682,146 342.683,146.577 349,140C353.741,135.064 357.782,127.91 357.68,118.674C358.163,118.581 358.652,118.483 359.147,118.381Z" style="fill:rgb(255,156,0);fill-opacity:0.71;fill-rule:nonzero;"/>
                    </g>
                </g>
            </g>
        </g>
    </g>
    <defs>
        <linearGradient id="_Linear1" x1="0" y1="0" x2="1" y2="0" gradientUnits="userSpaceOnUse" gradientTransform="matrix(61,11,-11,61,294.5,121.5)"><stop offset="0" style="stop-color:rgb(255,119,0);stop-opacity:0.77"/><stop offset="0.51" style="stop-color:rgb(203,110,15);stop-opacity:0.77"/><stop offset="1" style="stop-color:rgb(238,98,4);stop-opacity:0.77"/></linearGradient>
    </defs>
</svg>
