<?xml version="1.0" encoding="UTF-8" standalone="no"?>
<!DOCTYPE svg PUBLIC "-//W3C//DTD SVG 1.1//EN" "http://www.w3.org/Graphics/SVG/1.1/DTD/svg11.dtd">
<svg width="100%" height="100%" viewBox="0 0 250 153" version="1.1" xmlns="http://www.w3.org/2000/svg" xmlns:xlink="http://www.w3.org/1999/xlink" xml:space="preserve" xmlns:serif="http://www.serif.com/" style="fill-rule:evenodd;clip-rule:evenodd;stroke-linejoin:round;stroke-miterlimit:2;">
    <g transform="matrix(1,0,0,1,-1470.703316,326.93375)">
        <g transform="matrix(0.644796,0,0,0.644796,1464.657719,-326.93375)">
            <path d="M23.567,0.014C22.892,0.044 22.209,0.118 21.512,0.238C16.158,1.161 12.32,4.741 10.522,9.771C9.085,13.792 9.025,18.567 10.2,22.945C10.874,25.458 11.694,28.116 12.645,30.922C13.471,33.361 14.375,35.882 15.406,38.644C17.746,44.913 20.339,51.388 23.523,59.007C30.83,76.49 38.962,94.422 48.166,113.472C54.431,126.438 60.686,138.708 67.043,150.464C69.456,154.925 71.924,159.342 75.483,165.617C76.022,166.568 79.856,173.379 80.783,174.989C85.23,182.718 89.102,189.201 92.964,195.327C96.12,200.332 99.1,204.822 102.099,209.04C105.557,213.905 108.668,217.913 111.904,221.57C115.154,225.244 118.096,228.084 121.299,230.471C123.239,231.915 125.024,233.022 126.915,233.882C127.558,234.174 128.123,234.397 129.032,234.725C130.163,235.136 131.31,235.492 132.47,235.793C135.407,236.553 138.398,236.934 141.356,236.909C143.49,236.891 145.608,236.669 147.686,236.238C149.157,235.934 150.619,235.522 152.048,235.017C157.258,233.178 162.006,230.12 166.401,225.992C170.052,222.564 173.386,218.475 176.635,213.655C177.702,212.072 178.746,210.438 179.768,208.737C181.061,206.588 182.327,204.328 183.603,201.926C185.139,199.038 186.626,196.052 188.078,192.951C193.415,181.562 197.552,171.191 204.759,151.865C205.58,149.661 207.977,143.213 208.079,142.94C215.388,123.252 218.993,113.829 223.617,102.754C226.643,95.507 229.541,89.017 232.504,82.905C236.674,74.308 240.829,66.796 245.294,59.956C246.665,57.857 248.095,55.808 249.582,53.809C250.696,52.313 251.828,50.87 252.977,49.486C261.112,39.685 269.621,33.447 278.86,31.362C280.697,30.948 282.707,30.687 285.054,30.537C288.29,30.331 291.519,30.426 294.704,30.823C299.024,31.36 303.311,32.48 307.431,34.141C312.618,36.232 317.666,39.218 322.498,42.992C329.247,48.262 335.437,54.908 341.171,62.834C345.037,68.176 348.584,73.942 351.814,80.102C354.808,85.812 357.281,91.359 359.248,96.867C362.011,104.602 364.08,112.798 365.478,121.367C366.829,129.639 367.525,138.001 367.545,146.333C367.556,150.74 367.378,154.997 367.005,159.122C366.451,165.276 365.455,170.929 363.94,176.167C362.002,182.87 359.272,188.635 355.674,193.348C354.322,195.118 352.87,196.72 351.336,198.124C348.454,200.761 345.129,202.907 341.549,204.432C337.885,205.995 333.809,206.975 329.535,207.354C327.063,207.572 324.782,207.585 322.653,207.373C319.432,207.051 316.257,206.194 313.333,204.848C311.013,203.779 308.822,202.382 306.817,200.711C304.44,198.729 302.509,196.58 301.077,194.278C299.587,191.886 299.51,188.459 298.444,181.824C297.871,178.255 296.129,174.681 293.473,172.061C290.16,168.793 284.865,166.403 279.884,167.125C270.485,168.488 265.191,177.696 266.442,187.139C266.693,189.026 267.037,190.395 267.883,193.305C267.905,193.382 267.974,193.621 267.994,193.689C269.682,199.512 272.175,205.033 275.398,210.02C278.85,215.362 283.139,220.138 288.063,224.107C292.014,227.291 296.411,229.957 301.101,232.027C306.823,234.552 312.947,236.146 319.185,236.735C323.736,237.165 328.452,237.066 333.316,236.481C343.445,235.263 353.165,231.88 361.576,226.563C366.217,223.628 370.498,220.054 374.303,215.956C376.047,214.079 377.685,212.096 379.205,210.027C389.286,196.313 394.495,178.925 395.905,158.533C396.12,155.424 396.249,152.31 396.289,149.198C396.43,138.694 395.657,128.122 393.994,117.659C392.198,106.357 389.414,95.54 385.617,85.343C383.532,79.749 381.021,74.132 378.07,68.379C375.192,62.767 372.09,57.405 368.75,52.308C358.396,36.511 346.247,23.779 332.266,14.944C323.946,9.686 314.982,5.894 305.762,3.835C299.991,2.547 294.072,1.916 288.138,1.95C281.439,1.987 275.197,2.773 269.372,4.437C266.778,5.178 264.229,6.093 261.733,7.172C247.739,13.224 235.829,24.167 225.101,39.283C220.744,45.422 216.669,52.12 212.634,59.633C208.422,67.477 204.44,75.874 200.297,85.48C194.785,98.258 190.801,108.608 182.17,131.968C182.17,131.968 176.111,148.323 173.712,154.57C169.554,165.4 166.329,173.229 162.815,180.745C161.142,184.323 159.504,187.575 157.825,190.625C156.138,193.694 154.511,196.366 152.824,198.8C152.126,199.808 151.422,200.767 150.702,201.678C150.103,202.437 149.512,203.138 148.92,203.793C148.416,204.353 147.943,204.844 147.488,205.289C145.106,207.602 143.432,208.588 141.312,208.898C138.899,209.251 136.909,207.128 136.18,206.448C133.993,204.409 131.885,202.007 129.323,198.738C124.929,193.13 120.716,186.956 115.826,179.12C113.297,175.068 110.842,170.974 108.454,166.844C106.159,162.879 103.825,158.686 101.087,153.633C99.133,150.025 97.533,146.92 94.298,140.527C94.181,140.295 92.983,137.929 92.561,137.098C90.168,132.385 87.738,127.5 85.213,122.341C84.862,121.623 82.131,116.063 81.459,114.675C78.992,109.583 76.466,104.295 73.807,98.666C70.561,91.793 67.239,84.557 63.531,76.312C62.696,74.455 58.757,65.763 57.704,63.411C57.288,62.482 56.894,61.593 56.512,60.731C54.844,56.966 53.353,53.515 51.846,49.883C49.379,43.941 47.849,38.969 45.833,32.429C44.874,29.32 42.587,19.847 41.383,15.676C40.302,11.933 38.36,8.168 35.717,5.311C32.456,1.786 28.29,-0.19 23.567,0.014Z" style="fill:url(#_Linear1);fill-rule:nonzero;"/>
        </g>
    </g>
    <defs>
        <linearGradient id="_Linear1" x1="0" y1="0" x2="1" y2="0" gradientUnits="userSpaceOnUse" gradientTransform="matrix(92.712646,312.032732,-312.032732,92.712646,202.840655,67.431583)"><stop offset="0" style="stop-color:rgb(35,185,211);stop-opacity:1"/><stop offset="1" style="stop-color:rgb(35,87,211);stop-opacity:1"/></linearGradient>
    </defs>
</svg>
